<?xml version="1.0" encoding="UTF-8" standalone="no"?>
<!DOCTYPE svg PUBLIC "-//W3C//DTD SVG 1.1//EN" "http://www.w3.org/Graphics/SVG/1.1/DTD/svg11.dtd">
<svg width="100%" height="100%" viewBox="0 0 378 378" version="1.1" xmlns="http://www.w3.org/2000/svg" xmlns:xlink="http://www.w3.org/1999/xlink" xml:space="preserve" style="fill-rule:evenodd;clip-rule:evenodd;stroke-linejoin:round;stroke-miterlimit:2;">
    <g transform="matrix(2.01709,0,0,2.01709,-114.974,-32.4701)">
        <path d="M115.5,86C147.787,86 174,112.213 174,144.5C174,176.787 147.787,203 115.5,203C83.213,203 57,176.787 57,144.5C57,112.213 83.213,86 115.5,86ZM115.5,115.25C131.644,115.25 144.75,128.356 144.75,144.5C144.75,160.644 131.644,173.75 115.5,173.75C99.356,173.75 86.25,160.644 86.25,144.5C86.25,128.356 99.356,115.25 115.5,115.25Z" style="fill:rgb(255,255,0);fill-opacity:0.44;"/>
    </g>
    <g transform="matrix(2.01709,0,0,2.01709,-113.974,-172.47)">
        <path d="M115.5,86C147.787,86 174,112.213 174,144.5C174,176.787 147.787,203 115.5,203C83.213,203 57,176.787 57,144.5C57,112.213 83.213,86 115.5,86ZM115.5,115.25C131.644,115.25 144.75,128.356 144.75,144.5C144.75,160.644 131.644,173.75 115.5,173.75C99.356,173.75 86.25,160.644 86.25,144.5C86.25,128.356 99.356,115.25 115.5,115.25Z" style="fill:rgb(0,255,255);fill-opacity:0.43;"/>
    </g>
    <g transform="matrix(2.01709,0,0,2.01709,25.0256,-31.4701)">
        <path d="M115.5,86C147.787,86 174,112.213 174,144.5C174,176.787 147.787,203 115.5,203C83.213,203 57,176.787 57,144.5C57,112.213 83.213,86 115.5,86ZM115.5,115.25C131.644,115.25 144.75,128.356 144.75,144.5C144.75,160.644 131.644,173.75 115.5,173.75C99.356,173.75 86.25,160.644 86.25,144.5C86.25,128.356 99.356,115.25 115.5,115.25Z" style="fill:rgb(255,0,242);fill-opacity:0.38;"/>
    </g>
    <g transform="matrix(1,0,0,1,101,-162)">
        <text x="105.504px" y="251.722px" style="font-family:'DINAlternate-Bold', 'DIN Alternate', sans-serif;font-weight:700;font-size:125px;">C<tspan x="181.273px " y="251.722px ">M</tspan></text>
        <text x="128.515px" y="376.722px" style="font-family:'DINAlternate-Bold', 'DIN Alternate', sans-serif;font-weight:700;font-size:125px;">Y<tspan x="197.265px " y="376.722px ">K</tspan></text>
    </g>
</svg>
